    <svg
    
      xmlns="http://www.w3.org/2000/svg"
      version="1.1"
      viewBox="0 0 512 512"
      preserveAspectRatio="none"
      width="100%"
      height="100%"
      fill='rgb(82, 231, 189)'
    >
    <g transform="scale(5.12)">
      <path d="m42.059 40.359c9.1094-2.4219 9.7188-17.469 9.9688-23.762 0.30859-7.6211-7.8281-8.4492-18.441 1.6484-6.7305 6.4102-4.3398 13.441-1.6914 17.719 2.1406 3.4609 6.2305 5.4414 10.16 4.3906z" />
      <path d="m15.641 30.289c-2.9805 2.8984-5.9492 7.4883-5.6211 14.121 0.28906 5.9414 3.2109 8.8203 6.2812 10.191 4.7695 2.1289 10.238-0.17969 11.949-4.9688 1.3984-3.9414 1.5117-9.8711-3.3086-18.059-1.9219-3.2695-6.5586-3.9492-9.3008-1.2812z" />
      <path d="m62.16 18.469c-5.2188 7.4609-12.012 20.609-0.75 26.98 12.91 7.3008 20.461-15 11.699-27.051-2.7109-3.7305-8.3086-3.6992-10.949 0.078124z" />
      <path d="m69.98 64.031c1.4219 3.9609 5.6484 6.1016 9.6289 4.7617 1.0781-0.35938 2.2891-0.91016 3.6211-1.7109 7.9805-4.7891 11.641-32.559-4.7383-22.922-11.121 6.5391-10.23 15.07-8.5117 19.871z" />
      <path d="m16.852 69.129c-0.17187 3.2383 1.2891 6.6016 3.2617 9.1016 1.6602 2.1094 3.9219 3.7695 6.4805 4.6016 3.2812 1.0586 6.8711 0.85156 10.25 1.3516 3.6719 0.53906 7.1797 1.7891 10.711 2.8984 5.4219 1.7109 12.199 3.6406 17.41 0.37891 2.1289-1.3281 3.7109-3.4219 4.7188-5.7188 1.1992-2.7617 2.1211-6.0117 1.3281-9.0117-0.46875-1.7695-1.6914-3.1406-3.0898-4.2617-2.1406-1.7188-4.1211-3.5312-5.0195-6.1914-1.1797-3.4805-1.0898-7.5586-3.0898-10.738-2.0781-3.3203-5.5703-5.6289-9.4609-6.1406-3.8281-0.5-7.8008-0.51953-11.07 1.8398-2.2812 1.6602-3.7305 4.1094-5.6797 6.0898-2.8398 2.8594-6.3789 4.7383-9.8906 6.6289-3.5391 1.8984-6.6289 4.9492-6.8516 9.1602z" />
    </g>
    </svg>